<svg xmlns="http://www.w3.org/2000/svg" xmlns:xlink="http://www.w3.org/1999/xlink" width="1440" height="715" viewBox="0 0 1440 715">
  <defs>
    <clipPath id="clip-path">
      <rect id="Rectangle_658" data-name="Rectangle 658" width="1440" height="715" fill="#0f1221"/>
    </clipPath>
  </defs>
  <g id="Mask_Group" data-name="Mask Group" clip-path="url(#clip-path)">
    <g id="Group_1713" data-name="Group 1713" transform="translate(1128 18)">
      <path id="Vector_11" data-name="Vector 11" d="M324.5,0C216.333,7,0,81.7,0,324.5" transform="translate(105 535)" fill="none" stroke="#fff" stroke-width="1" stroke-dasharray="0 0"/>
      <path id="Vector_16" data-name="Vector 16" d="M324.5,0C216.333,7,0,81.7,0,324.5" transform="translate(129 607)" fill="none" stroke="#fff" stroke-width="1" stroke-dasharray="0 0"/>
      <path id="Vector_12" data-name="Vector 12" d="M324.5,0C216.333,7,0,81.7,0,324.5" transform="translate(36 478)" fill="none" stroke="#fff" stroke-width="1" stroke-dasharray="0 0"/>
      <path id="Vector_13" data-name="Vector 13" d="M324.5,0C216.333,7,0,81.7,0,324.5" transform="translate(23 394)" fill="none" stroke="#fff" stroke-width="1" stroke-dasharray="0 0"/>
      <path id="Vector_14" data-name="Vector 14" d="M324.5,0C216.333,7,0,81.7,0,324.5" transform="translate(0 315)" fill="none" stroke="#fff" stroke-width="1" stroke-dasharray="0 0"/>
      <path id="Vector_15" data-name="Vector 15" d="M324.5,0C216.333,7,0,81.7,0,324.5" transform="translate(0 232)" fill="none" stroke="#fff" stroke-width="1" stroke-dasharray="0 0"/>
      <path id="Vector_17" data-name="Vector 17" d="M324.5,0C216.333,7,0,81.7,0,324.5" transform="translate(0 154)" fill="none" stroke="#fff" stroke-width="1" stroke-dasharray="0 0"/>
      <path id="Vector_18" data-name="Vector 18" d="M324.5,0C216.333,7,0,81.7,0,324.5" transform="translate(0 76)" fill="none" stroke="#fff" stroke-width="1" stroke-dasharray="0 0"/>
      <path id="Vector_19" data-name="Vector 19" d="M324.5,0C216.333,7,0,81.7,0,324.5" transform="translate(8)" fill="none" stroke="#fff" stroke-width="1" stroke-dasharray="0 0"/>
    </g>
  </g>
</svg>
